<svg viewBox="0 0 22 21" fill="none" xmlns="http://www.w3.org/2000/svg">
<path d="M11.3844 0.810304C11.3122 0.664031 11.1632 0.571429 11.0001 0.571429C10.837 0.571429 10.688 0.664031 10.6158 0.810304L7.62544 6.86849L0.938139 7.84593C0.776756 7.86952 0.64275 7.98267 0.592445 8.13781C0.54214 8.29296 0.584257 8.46321 0.701094 8.57701L5.53961 13.2897L4.39772 19.9476C4.37014 20.1083 4.43625 20.2709 4.56824 20.3667C4.70023 20.4626 4.87521 20.4753 5.0196 20.3993L11.0001 17.2542L16.9806 20.3993C17.125 20.4753 17.3 20.4626 17.432 20.3667C17.564 20.2709 17.6301 20.1083 17.6025 19.9476L16.4606 13.2897L21.2992 8.57701C21.416 8.46321 21.4581 8.29296 21.4078 8.13781C21.3575 7.98267 21.2235 7.86952 21.0621 7.84593L14.3748 6.86849L11.3844 0.810304Z" fill="currentColor" stroke="currentColor" stroke-width="0.857143" stroke-linecap="round" stroke-linejoin="round"/>
</svg>
