<svg width="192" height="43" viewBox="0 0 192 43" fill="none" xmlns="http://www.w3.org/2000/svg">
<path d="M21.7811 7.26119L21.8202 7.26308C21.7663 7.31635 19.5057 7.97472 19.2549 8.06056C14.8403 9.57214 9.88333 12.2819 7.1431 16.1721C6.44121 17.1686 5.62577 18.812 5.86283 20.0741C6.0588 21.1174 6.6162 21.526 7.44082 22.0849L7.44177 22.1209L7.28532 22.0771C6.97782 21.9721 6.67543 21.807 6.41918 21.6075C5.83106 21.1497 5.50841 20.5078 5.42073 19.7742C5.20548 17.973 6.25028 16.1543 7.32965 14.795C10.7389 10.5012 16.4058 7.87612 21.7811 7.26119Z" fill="#1E1E1E"/>
<path d="M23.2925 2.57573L23.3173 2.58852C23.2505 2.6517 20.7944 3.04579 20.5055 3.10724C15.21 4.23426 10.4205 6.02453 6.02584 9.25056C4.37991 10.4589 2.7742 11.9073 1.65947 13.6326C0.934638 14.7544 0.322009 16.3248 0.623767 17.6778C0.913015 18.9747 1.86538 19.6137 2.92008 20.2759L2.44995 20.1041C1.9561 19.9106 1.51168 19.643 1.124 19.2797C0.416296 18.6165 0.0292308 17.7088 0.0020406 16.7416C-0.061159 14.4923 1.35373 12.3342 2.8468 10.7589C6.50478 6.89959 11.8984 4.29418 17.0676 3.23303C19.1319 2.80926 21.1904 2.63313 23.2925 2.57573Z" fill="#1E1E1E"/>
<path d="M42.969 0.504082C43.3355 0.47594 44.4726 0.597944 44.7951 0.760002C44.9054 0.815481 45.021 0.909401 45.0497 1.03611C45.0828 1.18187 45.023 1.36913 44.9571 1.49771C44.4318 2.52194 41.3655 3.76489 40.2447 4.13298C39.9426 5.03195 39.7354 6.29574 39.5229 7.24775C39.4425 7.60861 39.3866 8.02276 39.2315 8.35795C39.0993 8.64333 38.6511 8.72068 38.3736 8.81913C38.3025 8.23108 38.0088 6.7895 37.8147 6.25188C37.4212 5.99643 37.0082 5.76779 36.5954 5.54545C35.133 5.93011 33.6799 6.3533 32.1692 6.51392C32.1557 6.77285 32.1924 7.11266 32.0966 7.35408C32.0242 7.53668 31.8841 7.57521 31.7177 7.64699C31.3572 7.30303 30.9681 6.98266 30.5949 6.65178C30.4432 6.6533 30.2785 6.66517 30.1285 6.6482C30.028 6.63687 29.9892 6.6149 29.9229 6.54111C29.9402 6.42771 29.9552 6.31493 29.9668 6.20081C29.3394 5.67387 28.4496 5.42844 27.8495 4.85917C27.8599 4.78286 27.8725 4.74403 27.937 4.69403C28.2085 4.48352 28.8825 4.69174 29.1951 4.76421C29.6118 4.86865 30.0308 4.98953 30.4552 5.05702L30.0542 3.72091C30.2221 3.65314 30.3938 3.5989 30.5661 3.54367C31.2776 3.76256 31.9269 4.37601 32.5421 4.79036C33.2467 4.5735 33.9095 4.2086 34.6094 3.9695C34.2099 3.68862 33.8047 3.39767 33.3673 3.17889C32.5545 2.7724 31.6204 2.50057 30.7658 2.18721C29.8893 1.86585 28.9944 1.47628 28.096 1.22807C28.1934 1.10786 28.2918 0.971531 28.408 0.869421C28.8805 0.454302 30.4774 0.904406 31.0968 0.99985L36.2532 1.84086C37.0229 1.96673 37.832 2.15901 38.6077 2.22027C38.7771 2.23365 38.909 2.22199 39.0709 2.17057C39.7702 1.94847 40.6815 1.53643 41.3497 1.21488C41.8883 0.955695 42.3817 0.642275 42.969 0.504082Z" fill="#1E1E1E"/>
<path fill-rule="evenodd" clip-rule="evenodd" d="M30.2939 10.0247L30.2885 10.0253C29.8595 10.3632 29.5681 10.932 29.3077 11.4405C29.259 11.5356 29.2113 11.6286 29.1641 11.7176C27.5759 14.7088 26.5845 17.5864 25.62 20.8161C24.9891 19.5226 24.1384 18.3915 22.9365 17.5767C22.755 17.4536 22.5708 17.3366 22.3869 17.2197L22.3869 17.2197C22.0273 16.9912 21.6687 16.7633 21.3337 16.4926C20.6446 15.9355 20.0754 15.2652 19.5523 14.5547C22.3215 13.3281 25.1348 12.5149 28.127 12.0588C27.6143 12.015 27.0929 12.0523 26.5796 12.089L26.4872 12.0956C23.9272 12.2769 21.5155 12.9637 19.1561 13.951C19.1391 13.9102 19.1218 13.8663 19.1038 13.8205L19.1038 13.8205C18.9903 13.5328 18.8481 13.172 18.5665 13.0544C18.4302 12.9976 18.2805 13.0165 18.1485 13.0771C17.7777 13.2476 17.6396 13.6763 17.5021 14.1029C17.3956 14.4335 17.2895 14.7629 17.0759 14.9699C16.8257 15.2124 16.5062 15.411 16.1911 15.6068L16.1911 15.6068L16.1911 15.6068L16.1911 15.6069L16.1911 15.6069C16.0052 15.7224 15.8208 15.837 15.6531 15.9592C14.0603 17.119 12.3129 18.772 11.691 20.6791C11.415 21.5256 11.2998 22.4766 11.7256 23.2951C12.0514 23.9214 12.615 24.2818 13.2524 24.541C12.5508 24.0313 12.0011 23.5701 11.8584 22.6602C11.6887 21.5764 12.2962 20.3734 12.9217 19.5308C13.948 18.1486 15.328 17.0421 16.7565 16.0991C15.0621 20.7608 14.122 26.5329 14.5032 31.5039C14.5095 31.5865 14.5157 31.6697 14.5219 31.7532L14.5219 31.7534C14.5612 32.2834 14.6016 32.8284 14.6952 33.3452C15.0356 36.0295 15.857 38.7512 17.1362 41.1396C17.1665 41.1961 17.197 41.254 17.2279 41.3127L17.228 41.313C17.4306 41.6977 17.6517 42.1176 17.9522 42.4119C18.4825 42.5243 19.236 42.5038 19.8938 42.486H19.8938C20.1144 42.48 20.3241 42.4743 20.5111 42.474L25.1548 42.4705L36.5702 42.4726C37.197 42.4727 37.8247 42.4771 38.4527 42.4815L38.4535 42.4815H38.4538C39.77 42.4906 41.0872 42.4998 42.4001 42.4701C42.6199 42.4651 42.8427 42.4518 43.0517 42.3791C43.4097 42.0461 43.6652 41.5091 43.8906 41.0353L43.8906 41.0352L43.8908 41.0348C43.9376 40.9364 43.9831 40.8407 44.028 40.7502C45.6052 37.5672 46.4047 34.0777 46.5446 30.5335C46.7444 25.4699 45.7365 20.2879 44.0334 15.532C43.9992 15.4365 43.9601 15.3219 43.9168 15.1953C43.6954 14.5477 43.3659 13.5835 43.0342 13.2245C42.9467 13.1299 42.8276 13.0339 42.6947 13.019C42.5447 13.002 42.3685 13.0592 42.2596 13.1636C42.093 13.3232 41.986 13.5598 41.8814 13.7912C41.821 13.9249 41.7613 14.0569 41.6913 14.1713C41.4149 14.6174 41.0992 15.0337 40.7445 15.4204C40.2492 15.9624 39.6886 16.4867 39.0848 16.9066C38.9049 17.0317 38.7199 17.1492 38.5348 17.2667L38.5347 17.2668L38.5347 17.2668C38.2872 17.4239 38.0397 17.581 37.8047 17.7563C37.6738 17.8556 37.5461 17.9589 37.4216 18.0661C37.2971 18.1734 37.1761 18.2844 37.0585 18.3993C36.9409 18.514 36.827 18.6324 36.7168 18.7542C36.6066 18.8761 36.5002 19.0013 36.3978 19.1299C36.2953 19.2584 36.197 19.39 36.1028 19.5245C36.0086 19.6592 35.9186 19.7967 35.8329 19.9369C35.7472 20.0771 35.666 20.2198 35.5892 20.3651C35.5124 20.5104 35.4401 20.6579 35.3726 20.8077C34.4266 17.5975 33.2781 14.4952 31.719 11.5275C31.6816 11.4562 31.6406 11.3731 31.5961 11.2832L31.5961 11.283C31.3834 10.8524 31.0932 10.2647 30.7505 10.0699C30.6153 9.99308 30.4431 10.01 30.2939 10.0247ZM19.6672 39.1021C18.9397 39.0982 18.2116 39.0942 17.4851 39.1103C17.6951 39.7579 18.0665 40.3916 18.4164 40.9886C18.4691 41.0785 18.5213 41.1675 18.5724 41.2557C18.7237 41.2579 18.8773 41.2623 19.032 41.2668H19.032H19.0321H19.0322H19.0322H19.0323H19.0323H19.0324H19.0324H19.0325H19.0325H19.0326H19.0326H19.0327H19.0327H19.0328H19.0328C19.4897 41.2799 19.9558 41.2933 20.3995 41.2516C20.4489 40.7121 20.4639 40.1673 20.4789 39.6241C20.4837 39.451 20.4885 39.2781 20.4943 39.1055C20.2205 39.1051 19.9466 39.1036 19.6725 39.1021H19.6722H19.6718H19.6715H19.6712H19.6708H19.6705H19.6702H19.6699H19.6695H19.6692H19.6689H19.6685H19.6682H19.6679H19.6675H19.6672ZM40.4312 39.1036C41.1075 39.1185 41.7861 39.1136 42.464 39.1087L42.4645 39.1087C42.7917 39.1063 43.1187 39.1039 43.4453 39.1038C43.3146 39.4936 43.1209 39.874 42.9314 40.2461C42.882 40.3431 42.8329 40.4395 42.7853 40.5353C42.6926 40.7326 42.5903 40.9257 42.4882 41.1185C42.4633 41.1656 42.4383 41.2128 42.4135 41.2599L40.5446 41.2607C40.4723 40.5803 40.4527 39.8772 40.4337 39.1916V39.1916L40.4312 39.1036ZM44.7881 23.0595L41.4422 23.0561L41.399 23.3143L41.3989 23.3145L41.3989 23.3145C41.3293 23.7289 41.2596 24.1439 41.2058 24.5602L44.8066 24.5596L44.9372 24.5444C45.0319 24.4023 44.9343 23.8869 44.8581 23.4849C44.8244 23.3067 44.7948 23.1508 44.7881 23.0595ZM18.4445 23.063H18.4445H18.4447H18.4449H18.445H18.4452H18.4453H18.4455H18.4457H18.4458H18.446H18.4461H18.4463H18.4465H18.4466C18.8135 23.0617 19.1804 23.0604 19.5471 23.0605C19.5556 23.1568 19.5853 23.3156 19.619 23.4954C19.6929 23.89 19.7859 24.386 19.7148 24.5453L19.6089 24.5593L15.9553 24.555C16.0364 24.0571 16.1111 23.5582 16.1793 23.0585C16.9339 23.0684 17.6893 23.0657 18.4444 23.063H18.4444H18.4444H18.4444H18.4445H18.4445H18.4445H18.4445H18.4445H18.4445H18.4445H18.4445H18.4445ZM44.4085 36.431L40.3813 36.4315L40.399 37.8913C40.7763 37.8912 41.1538 37.8923 41.5313 37.8934H41.5314H41.5316H41.5317H41.5318H41.5319H41.532H41.5321H41.5322H41.5324H41.5325H41.5326H41.5327C42.3337 37.8958 43.1349 37.8982 43.9355 37.8886L44.0283 37.6436C44.1663 37.2429 44.293 36.8387 44.4085 36.431ZM16.526 36.4262C17.427 36.4579 18.3354 36.4483 19.2418 36.4388L19.2422 36.4388C19.6798 36.4341 20.117 36.4295 20.5526 36.4296L20.5384 37.883C19.7356 37.9139 18.9264 37.9074 18.119 37.901C17.7423 37.898 17.366 37.895 16.991 37.8957C16.8571 37.5284 16.7443 37.1519 16.6317 36.7764C16.5966 36.6595 16.5616 36.5427 16.526 36.4262ZM19.9509 25.735L15.7949 25.7341C15.7776 26.2224 15.7513 26.7457 15.6804 27.2293L20.0377 27.2312L20.0887 27.1836C20.0776 26.8614 20.0405 26.5399 20.0035 26.2187C19.9848 26.0574 19.9662 25.8962 19.9509 25.735ZM41.0286 25.7357L45.1554 25.7312C45.1632 25.7993 45.174 25.8804 45.1859 25.9697L45.1859 25.9703C45.2386 26.3663 45.3126 26.9221 45.2427 27.2073L45.1702 27.2296L40.8439 27.2335C40.8851 26.8682 40.9314 26.5033 40.9778 26.1384L40.9778 26.138C40.9948 26.0039 41.0119 25.8698 41.0286 25.7357ZM19.0587 33.7637H19.0587H19.0586H19.0586H19.0585H19.0585H19.0584H19.0584H19.0583C18.0236 33.7706 16.9876 33.7776 15.9561 33.7527C16.0027 34.0997 16.069 34.4423 16.1353 34.7852L16.1353 34.7853C16.1629 34.9279 16.1905 35.0706 16.2167 35.2138L20.5506 35.2171L20.5394 33.7571C20.0466 33.757 19.5528 33.7603 19.0587 33.7637ZM40.4047 33.7549L44.998 33.7552C44.9277 34.1806 44.8505 34.6047 44.7664 35.0276L44.7206 35.1616L44.7151 35.1665L44.7117 35.1698L44.7026 35.1791C44.691 35.1913 44.6793 35.2035 44.664 35.2094C44.5459 35.2542 42.4103 35.2351 41.1772 35.224C40.8039 35.2206 40.5133 35.218 40.3865 35.2182L40.4047 33.7549ZM45.3429 28.406L40.7126 28.4087C40.7025 28.5534 40.6909 28.6985 40.6793 28.8439C40.651 29.1977 40.6226 29.5528 40.6154 29.9054L45.3 29.9082C45.3872 29.7853 45.3618 29.012 45.3485 28.608V28.6079V28.6077C45.3456 28.5191 45.3433 28.4482 45.3429 28.406ZM15.6254 28.4061C16.8069 28.423 17.9906 28.4158 19.1733 28.4087C19.5302 28.4065 19.887 28.4044 20.2437 28.4029C20.2526 28.6712 20.273 28.9396 20.2935 29.208C20.311 29.4388 20.3286 29.6697 20.3389 29.9007C19.2432 29.9228 18.1453 29.9175 17.0481 29.9122C16.5708 29.9099 16.0936 29.9076 15.6168 29.9076C15.6059 29.4693 15.614 29.031 15.622 28.5928V28.5928V28.5928V28.5928V28.5928V28.5928L15.6254 28.4061ZM18.8915 31.0861C17.8197 31.0926 16.7471 31.0991 15.6774 31.0787C15.6833 31.5674 15.7044 32.1009 15.7998 32.5809L20.4839 32.5801C20.4736 32.0798 20.4567 31.5797 20.4332 31.0797C19.92 31.0798 19.4061 31.083 18.8921 31.0861L18.8915 31.0861ZM40.5206 31.08L45.2771 31.0851C45.2635 31.5766 45.2332 32.0843 45.1454 32.5686C44.8824 32.6238 44.4966 32.6069 44.1539 32.592C44.0109 32.5857 43.8753 32.5798 43.7594 32.5796L40.4591 32.5799C40.4734 32.0796 40.4939 31.5797 40.5206 31.08ZM42.828 15.6789C42.7572 15.4486 42.6724 15.173 42.5543 15.0314C41.996 15.8391 41.3745 16.5401 40.6293 17.1825C40.0774 17.6583 39.5866 18.0016 39.1375 18.3158C38.0822 19.0539 37.2566 19.6314 36.4079 21.3891C36.1038 22.0192 35.8892 22.6027 36.0159 23.3087C36.0785 23.658 36.1582 24.0042 36.2379 24.3505L36.2379 24.3506L36.238 24.3506L36.238 24.3506C36.3195 24.7048 36.4011 25.0592 36.4645 25.4172C36.7292 26.8699 36.9395 28.3305 37.0951 29.7989C37.2507 31.2673 37.3514 32.7395 37.3971 34.2154C37.4315 35.6799 37.4338 37.1646 37.3687 38.6281C37.3521 38.9979 37.3251 39.3679 37.2981 39.7379V39.7379V39.738L37.2981 39.738C37.2611 40.245 37.2241 40.7521 37.2141 41.2589L39.3462 41.2582L39.2701 39.9885C39.0027 34.1536 39.2503 27.4376 40.4964 21.7309C40.519 21.6274 40.5426 21.5036 40.5683 21.3682C40.6784 20.7903 40.8286 20.0014 41.1127 19.683C41.2106 19.5733 41.3424 19.5037 41.4916 19.506C41.6543 19.5085 41.8416 19.5916 41.9459 19.7173C42.089 19.8896 42.0884 20.0443 42.0625 20.2577C42.0249 20.5655 41.9421 20.8717 41.8594 21.1776L41.8594 21.1777C41.7956 21.4137 41.7318 21.6496 41.6888 21.8862L44.5631 21.8834C44.1088 19.8484 43.5847 17.8526 42.8934 15.8832C42.8726 15.8241 42.8511 15.7539 42.828 15.6789ZM19.1188 15.8926L19.1188 15.8926C19.401 16.2318 19.6857 16.5743 19.8014 16.6871C20.2331 17.1082 20.7198 17.5088 21.2129 17.8561C21.3541 17.9556 21.4962 18.0528 21.6381 18.1499C22.113 18.4749 22.5852 18.7979 23.0097 19.1947C23.8543 19.984 24.4939 21.0249 24.8675 22.1162L24.883 22.1614L24.883 22.1614C24.9509 22.3584 25.0323 22.5949 25.0474 22.7959C25.0643 23.0235 24.8298 24.0854 24.6585 24.8611C24.5844 25.1971 24.522 25.4793 24.4971 25.6169C24.2323 27.043 24.0247 28.4774 23.8743 29.92C23.6518 32.04 23.547 34.1657 23.5601 36.2971C23.5756 37.2807 23.6032 38.2715 23.6568 39.2538C23.6714 39.5226 23.6911 39.7911 23.7109 40.0596L23.7109 40.0597C23.7402 40.4587 23.7695 40.8577 23.782 41.2577L21.6137 41.2611C21.6114 40.8967 21.6266 40.5353 21.6452 40.1716C21.657 39.6094 21.6752 39.0479 21.6934 38.4865L21.6934 38.4864L21.6934 38.4863C21.7235 37.5579 21.7536 36.6296 21.7545 35.6985C21.7633 33.7312 21.6959 31.7666 21.5522 29.8046C21.4085 27.8426 21.1891 25.8891 20.894 23.944L20.8554 23.7044V23.7044C20.6633 22.5097 20.4634 21.2659 20.107 20.1144C20.0408 19.9005 19.9565 19.6733 19.7418 19.5703C19.6117 19.508 19.4356 19.487 19.2989 19.539C19.0752 19.6241 18.9641 19.8364 18.879 20.0445C18.9383 20.4595 19.0479 20.8848 19.156 21.3041C19.2062 21.4988 19.256 21.6922 19.3004 21.8826L16.4318 21.8829C16.5387 21.159 16.7343 20.4311 16.925 19.7212L16.9726 19.5439C17.3762 18.0369 17.8219 16.5329 18.4165 15.0888C18.4694 15.1116 18.7923 15.4999 19.1188 15.8926ZM30.4908 11.8126C30.4873 11.8087 30.484 11.805 30.481 11.8016C26.5985 19.1097 24.8232 27.5316 24.8043 35.7769C24.8002 37.5948 24.853 39.4521 25.0651 41.259L30.5321 41.2612C31.1168 41.2611 31.7017 41.2632 32.2867 41.2653C33.5012 41.2697 34.7161 41.274 35.9296 41.2583C36.0361 40.4296 36.0714 39.5799 36.1061 38.7446L36.1099 38.6511C36.1682 37.2516 36.187 35.8843 36.1376 34.4845C35.9053 27.9102 34.7389 21.3728 32.1707 15.2898C31.8077 14.4159 31.4136 13.5564 30.9883 12.7112C30.9559 12.6464 30.9233 12.5782 30.8901 12.5087C30.784 12.2867 30.6712 12.0508 30.5343 11.8642C30.5225 11.8481 30.5052 11.8287 30.4908 11.8126Z" fill="#1E1E1E"/>
<path d="M30.3783 16.4995C30.5763 16.5001 30.7574 16.5155 30.9037 16.6656C31.0516 16.8173 31.0832 17.0402 31.0971 17.2421C31.1635 18.2027 31.102 19.2122 31.1024 20.1774L31.1036 26.1919L31.1037 34.741C31.1044 36.3163 31.1437 37.9021 31.0943 39.4758C30.9887 39.6047 30.8696 39.715 30.7488 39.8289C30.0111 39.8561 29.2681 39.8289 28.5296 39.8353C27.9524 39.8404 27.3117 39.9033 26.74 39.8289C26.582 39.8084 26.4191 39.7553 26.292 39.6575C26.1843 39.5745 26.0835 39.4393 26.0746 39.2994C26.0631 39.1227 26.1544 38.9368 26.2758 38.8132C26.3577 38.7297 26.449 38.7017 26.5625 38.6835C26.9801 38.6169 27.4366 38.652 27.8592 38.6541L29.8988 38.6585C29.9074 38.158 29.8957 37.6583 29.9125 37.1579C29.2089 37.1683 28.5045 37.1545 27.8008 37.1595C27.352 37.1627 26.8741 37.2089 26.4304 37.1484C26.2499 37.1239 26.0543 37.0723 25.9128 36.9512C25.8091 36.8624 25.7527 36.743 25.7514 36.6063C25.7496 36.4417 25.8113 36.2528 25.9282 36.1343C26.0143 36.047 26.1285 35.9956 26.248 35.9739C26.6679 35.8973 27.1522 35.9423 27.5785 35.9437L29.902 35.9461C29.8949 35.4485 29.8968 34.9509 29.9078 34.4534C29.1875 34.4444 28.4663 34.454 27.746 34.4546C27.357 34.4548 26.9175 34.4951 26.5381 34.4147C26.5011 34.4071 26.4651 34.3958 26.4303 34.3809C26.3955 34.3659 26.3626 34.3477 26.3315 34.3261C26.3005 34.3045 26.2719 34.28 26.2458 34.2525C26.2197 34.2251 26.1966 34.1954 26.1765 34.1633C26.064 33.9843 26.0877 33.8022 26.1332 33.6065C26.1652 33.5514 26.2066 33.4943 26.2514 33.449C26.3572 33.3423 26.5195 33.31 26.6619 33.2889C27.0287 33.2344 27.4338 33.2672 27.8044 33.2686C28.5034 33.2735 29.2025 33.2747 29.9015 33.272C29.8857 32.7757 29.8973 32.2754 29.8963 31.7786L27.8564 31.7804C27.4654 31.7826 27.023 31.8252 26.6399 31.7606C26.5351 31.743 26.4275 31.6974 26.3426 31.6331C26.2044 31.5282 26.1137 31.3768 26.0924 31.2039C26.0735 31.0493 26.1169 30.8955 26.2219 30.7795C26.3053 30.6873 26.4174 30.6289 26.5379 30.6016C26.9291 30.5136 27.3973 30.5605 27.7967 30.5622C28.5003 30.5704 29.204 30.5696 29.9076 30.5597C29.8878 30.0635 29.8983 29.5628 29.8963 29.066L27.9622 29.0725C27.6279 29.0734 27.271 29.0977 26.9396 29.0561C26.8157 29.0405 26.6929 29.0109 26.5935 28.9318C26.4672 28.8313 26.3816 28.668 26.3743 28.5067C26.367 28.3422 26.4264 28.1772 26.5464 28.0628C26.6371 27.9767 26.7448 27.9324 26.8664 27.9109C27.2402 27.8448 27.6633 27.8855 28.0453 27.8874L29.9051 27.8891C29.8968 27.3902 29.8971 26.8913 29.9059 26.3924C29.2318 26.388 27.7999 26.4768 27.2032 26.3776C27.0445 26.3513 26.8823 26.2988 26.7574 26.1938C26.6458 26.1 26.5828 25.975 26.5721 25.8299C26.5606 25.6758 26.6062 25.5259 26.7161 25.4148C26.8397 25.2899 27.0158 25.2301 27.1849 25.1998C27.5066 25.1423 27.873 25.1744 28.2013 25.1758L29.8985 25.1781C29.8971 24.6797 29.8988 24.1814 29.9036 23.6831C29.3775 23.6813 27.9685 23.8269 27.6198 23.4756C27.512 23.3671 27.4656 23.2263 27.4676 23.075C27.4697 22.9323 27.5163 22.7956 27.622 22.6965C27.9724 22.3684 29.4024 22.503 29.8976 22.5035L29.8951 21.0109C29.4153 21.0115 28.4398 21.1548 28.0895 20.7916C27.9858 20.6839 27.9475 20.5411 27.95 20.3945C27.9527 20.2392 28.0013 20.0968 28.1173 19.9895C28.4719 19.6623 29.4247 19.7921 29.8979 19.7938C29.8977 19.1387 29.7795 17.3498 29.9941 16.8372C30.0725 16.6498 30.1997 16.5788 30.3783 16.4995Z" fill="#1E1E1E"/>
<path d="M190.608 32.056V20.536H191.952V32.056H190.608Z" fill="#1E1E1E"/>
<path d="M185.05 32.248C184.293 32.248 183.621 32.072 183.034 31.72C182.458 31.368 182.005 30.8773 181.674 30.248C181.343 29.608 181.178 28.8667 181.178 28.024C181.178 27.1707 181.338 26.4293 181.658 25.8C181.989 25.1707 182.447 24.68 183.034 24.328C183.631 23.976 184.314 23.8 185.082 23.8C185.871 23.8 186.538 23.976 187.082 24.328C187.637 24.68 188.058 25.144 188.346 25.72C188.645 26.2853 188.794 26.9093 188.794 27.592C188.794 27.6987 188.794 27.8107 188.794 27.928C188.794 28.0453 188.789 28.1787 188.778 28.328H182.186V27.288H187.482C187.45 26.552 187.205 25.976 186.746 25.56C186.298 25.144 185.733 24.936 185.05 24.936C184.591 24.936 184.165 25.0427 183.77 25.256C183.386 25.4587 183.077 25.7627 182.842 26.168C182.607 26.5627 182.49 27.0587 182.49 27.656V28.104C182.49 28.7653 182.607 29.32 182.842 29.768C183.087 30.216 183.402 30.552 183.786 30.776C184.181 31 184.602 31.112 185.05 31.112C185.615 31.112 186.079 30.9893 186.442 30.744C186.815 30.488 187.082 30.1467 187.242 29.72H188.57C188.442 30.2 188.218 30.632 187.898 31.016C187.578 31.4 187.178 31.704 186.698 31.928C186.229 32.1413 185.679 32.248 185.05 32.248Z" fill="#1E1E1E"/>
<path d="M175.803 32.056L172.747 23.992H174.155L176.587 30.76L179.035 23.992H180.411L177.355 32.056H175.803Z" fill="#1E1E1E"/>
<path d="M167.701 32.248C167.05 32.248 166.506 32.136 166.069 31.912C165.631 31.6773 165.306 31.3733 165.093 31C164.879 30.616 164.773 30.2 164.773 29.752C164.773 29.208 164.911 28.7493 165.189 28.376C165.477 27.992 165.877 27.704 166.389 27.512C166.911 27.3093 167.525 27.208 168.229 27.208H170.357C170.357 26.7067 170.277 26.2907 170.117 25.96C169.967 25.6187 169.743 25.3627 169.445 25.192C169.157 25.0213 168.794 24.936 168.357 24.936C167.845 24.936 167.402 25.064 167.029 25.32C166.655 25.576 166.426 25.9547 166.341 26.456H164.965C165.029 25.88 165.221 25.4 165.541 25.016C165.871 24.6213 166.287 24.3227 166.789 24.12C167.29 23.9067 167.813 23.8 168.357 23.8C169.103 23.8 169.722 23.9387 170.213 24.216C170.714 24.4827 171.087 24.8613 171.333 25.352C171.578 25.832 171.701 26.4027 171.701 27.064V32.056H170.501L170.421 30.632C170.314 30.856 170.175 31.0693 170.005 31.272C169.845 31.464 169.653 31.6347 169.429 31.784C169.205 31.9227 168.949 32.0347 168.661 32.12C168.383 32.2053 168.063 32.248 167.701 32.248ZM167.909 31.112C168.282 31.112 168.618 31.0373 168.917 30.888C169.226 30.728 169.487 30.5147 169.701 30.248C169.914 29.9707 170.074 29.6667 170.181 29.336C170.298 29.0053 170.357 28.6587 170.357 28.296V28.248H168.341C167.818 28.248 167.397 28.312 167.077 28.44C166.757 28.5573 166.527 28.728 166.389 28.952C166.25 29.1653 166.181 29.4107 166.181 29.688C166.181 29.976 166.245 30.2267 166.373 30.44C166.511 30.6533 166.709 30.8187 166.965 30.936C167.231 31.0533 167.546 31.112 167.909 31.112Z" fill="#1E1E1E"/>
<path d="M159.155 32.056V23.992H160.371L160.467 25.528C160.648 25.1653 160.877 24.856 161.155 24.6C161.443 24.344 161.784 24.1467 162.179 24.008C162.584 23.8693 163.043 23.8 163.555 23.8V25.208H163.059C162.717 25.208 162.392 25.256 162.083 25.352C161.773 25.4373 161.496 25.5813 161.251 25.784C161.016 25.9867 160.829 26.264 160.691 26.616C160.563 26.9573 160.499 27.384 160.499 27.896V32.056H159.155Z" fill="#1E1E1E"/>
<path d="M153.796 32.056V21.96H150.452V20.856H158.484V21.96H155.14V32.056H153.796Z" fill="#1E1E1E"/>
<path d="M141.914 32.056C141.066 32.056 140.322 31.928 139.682 31.672C139.058 31.4 138.57 30.96 138.218 30.352C137.866 29.728 137.69 28.88 137.69 27.808V22.672H135.626V19.96H137.69L138.05 16.672H140.93V19.96H144.122V22.672H140.93V27.856C140.93 28.4 141.05 28.776 141.29 28.984C141.53 29.192 141.938 29.296 142.514 29.296H144.098V32.056H141.914Z" fill="#1E1E1E"/>
<path d="M121.654 32.056V19.96H124.51L124.75 21.928C125.118 21.256 125.638 20.712 126.31 20.296C126.998 19.88 127.814 19.672 128.758 19.672C129.766 19.672 130.614 19.88 131.302 20.296C131.99 20.712 132.51 21.32 132.862 22.12C133.23 22.92 133.414 23.904 133.414 25.072V32.056H130.198V25.384C130.198 24.424 129.99 23.688 129.574 23.176C129.174 22.664 128.55 22.408 127.702 22.408C127.158 22.408 126.67 22.536 126.238 22.792C125.822 23.048 125.494 23.416 125.254 23.896C125.014 24.36 124.894 24.928 124.894 25.6V32.056H121.654Z" fill="#1E1E1E"/>
<path d="M111.671 32.344C110.663 32.344 109.831 32.184 109.175 31.864C108.519 31.528 108.031 31.088 107.711 30.544C107.407 29.984 107.255 29.368 107.255 28.696C107.255 27.96 107.439 27.312 107.807 26.752C108.191 26.192 108.759 25.752 109.511 25.432C110.279 25.112 111.239 24.952 112.391 24.952H115.391C115.391 24.36 115.311 23.872 115.151 23.488C114.991 23.088 114.743 22.792 114.407 22.6C114.071 22.408 113.623 22.312 113.063 22.312C112.455 22.312 111.935 22.448 111.503 22.72C111.087 22.976 110.831 23.376 110.735 23.92H107.591C107.671 23.056 107.951 22.312 108.431 21.688C108.927 21.048 109.575 20.552 110.375 20.2C111.191 19.848 112.095 19.672 113.087 19.672C114.223 19.672 115.207 19.864 116.039 20.248C116.871 20.632 117.511 21.184 117.959 21.904C118.407 22.624 118.631 23.512 118.631 24.568V32.056H115.895L115.535 30.208C115.359 30.528 115.151 30.816 114.911 31.072C114.671 31.328 114.391 31.552 114.071 31.744C113.751 31.936 113.391 32.08 112.991 32.176C112.591 32.288 112.151 32.344 111.671 32.344ZM112.439 29.848C112.855 29.848 113.223 29.776 113.543 29.632C113.879 29.472 114.167 29.264 114.407 29.008C114.647 28.736 114.831 28.432 114.959 28.096C115.103 27.744 115.199 27.368 115.247 26.968V26.944H112.775C112.279 26.944 111.871 27.008 111.551 27.136C111.247 27.248 111.023 27.416 110.879 27.64C110.735 27.864 110.663 28.12 110.663 28.408C110.663 28.728 110.735 28.992 110.879 29.2C111.023 29.408 111.231 29.568 111.503 29.68C111.775 29.792 112.087 29.848 112.439 29.848Z" fill="#1E1E1E"/>
<path d="M101.077 32.056V19.96H104.317V32.056H101.077ZM102.709 18.304C102.133 18.304 101.653 18.136 101.269 17.8C100.901 17.448 100.717 17.008 100.717 16.48C100.717 15.952 100.901 15.52 101.269 15.184C101.653 14.832 102.133 14.656 102.709 14.656C103.301 14.656 103.781 14.832 104.149 15.184C104.533 15.52 104.725 15.952 104.725 16.48C104.725 17.008 104.533 17.448 104.149 17.8C103.781 18.136 103.301 18.304 102.709 18.304Z" fill="#1E1E1E"/>
<path d="M94.607 32.056V14.776H97.847V32.056H94.607Z" fill="#1E1E1E"/>
<path d="M88.2086 32.056V14.776H91.4486V32.056H88.2086Z" fill="#1E1E1E"/>
<path d="M81.6947 32.056V19.96H84.9347V32.056H81.6947ZM83.3267 18.304C82.7507 18.304 82.2707 18.136 81.8867 17.8C81.5187 17.448 81.3347 17.008 81.3347 16.48C81.3347 15.952 81.5187 15.52 81.8867 15.184C82.2707 14.832 82.7507 14.656 83.3267 14.656C83.9187 14.656 84.3987 14.832 84.7667 15.184C85.1507 15.52 85.3427 15.952 85.3427 16.48C85.3427 17.008 85.1507 17.448 84.7667 17.8C84.3987 18.136 83.9187 18.304 83.3267 18.304Z" fill="#1E1E1E"/>
<path d="M71.8023 32.056V19.96H74.6823L74.9943 22.192C75.2823 21.664 75.6423 21.216 76.0743 20.848C76.5223 20.48 77.0263 20.192 77.5863 19.984C78.1623 19.776 78.7943 19.672 79.4823 19.672V23.104H78.3783C77.8983 23.104 77.4503 23.16 77.0343 23.272C76.6343 23.384 76.2823 23.568 75.9783 23.824C75.6743 24.064 75.4423 24.4 75.2823 24.832C75.1223 25.264 75.0423 25.808 75.0423 26.464V32.056H71.8023Z" fill="#1E1E1E"/>
<path d="M56.5696 32.056V15.256H63.4576C64.6256 15.256 65.6096 15.44 66.4096 15.808C67.2096 16.176 67.8096 16.688 68.2096 17.344C68.6256 17.984 68.8336 18.728 68.8336 19.576C68.8336 20.424 68.6496 21.136 68.2816 21.712C67.9136 22.288 67.4256 22.736 66.8176 23.056C66.2256 23.36 65.5696 23.536 64.8496 23.584L65.2336 23.32C66.0016 23.352 66.6816 23.56 67.2736 23.944C67.8816 24.312 68.3536 24.808 68.6896 25.432C69.0416 26.056 69.2176 26.736 69.2176 27.472C69.2176 28.368 69.0016 29.16 68.5696 29.848C68.1376 30.536 67.5136 31.08 66.6976 31.48C65.8816 31.864 64.8816 32.056 63.6976 32.056H56.5696ZM59.8096 29.416H63.1696C64.0496 29.416 64.7296 29.216 65.2096 28.816C65.6896 28.416 65.9296 27.84 65.9296 27.088C65.9296 26.336 65.6816 25.752 65.1856 25.336C64.6896 24.904 64.0016 24.688 63.1216 24.688H59.8096V29.416ZM59.8096 22.264H62.9296C63.7776 22.264 64.4176 22.072 64.8496 21.688C65.2976 21.304 65.5216 20.76 65.5216 20.056C65.5216 19.368 65.2976 18.832 64.8496 18.448C64.4176 18.048 63.7696 17.848 62.9056 17.848H59.8096V22.264Z" fill="#1E1E1E"/>
</svg>
